<?xml version="1.0" standalone="no"?>
<!DOCTYPE svg PUBLIC "-//W3C//DTD SVG 20010904//EN"
 "http://www.w3.org/TR/2001/REC-SVG-20010904/DTD/svg10.dtd">
<svg version="1.0" xmlns="http://www.w3.org/2000/svg"
 width="300.000000pt" height="300.000000pt" viewBox="0 0 300.000000 300.000000"
 preserveAspectRatio="xMidYMid meet">
<metadata>
Created by potrace 1.11, written by Peter Selinger 2001-2013
</metadata>
<g transform="translate(0.000000,300.000000) scale(0.100000,-0.100000)"
fill="#000000" stroke="none">
<path d="M1260 2539 c-19 -4 -57 -10 -85 -14 -67 -8 -176 -41 -253 -76 -63
-29 -207 -119 -252 -159 -14 -12 -46 -40 -72 -61 -25 -22 -61 -54 -80 -72 -46
-43 -207 -190 -238 -218 -54 -48 -186 -142 -232 -165 l-47 -24 0 -178 0 -178
44 -28 c74 -46 139 -111 299 -295 84 -97 175 -196 201 -219 68 -60 171 -107
300 -139 49 -12 163 -34 195 -38 77 -10 177 -18 212 -19 21 -1 38 -3 38 -6 0
-6 307 -3 380 4 25 2 62 4 82 5 l37 1 -29 48 c-35 58 -45 112 -26 155 16 41
73 95 129 124 39 21 40 22 15 23 -35 0 -71 52 -92 134 -17 65 -13 117 13 159
l18 29 24 -44 c13 -23 35 -67 48 -96 l25 -53 50 3 51 3 115 232 c63 128 117
233 120 233 3 0 5 -143 4 -318 l-1 -318 89 0 c73 0 88 3 89 15 0 9 1 158 2
332 2 350 0 338 70 369 52 23 106 9 158 -40 36 -34 39 -35 45 -16 25 93 76
127 195 134 l78 5 -26 46 c-32 56 -104 170 -120 191 -7 8 -26 33 -43 55 -78
100 -297 227 -535 310 -27 10 -59 21 -70 26 -56 21 -251 76 -305 85 -14 3 -49
9 -78 15 -29 6 -65 12 -80 14 -15 2 -54 8 -87 12 -33 5 -75 8 -92 8 -18 0 -33
2 -33 5 0 8 -212 7 -250 -1z"/>
</g>
</svg>
